<?xml version="1.0" standalone="no"?><!DOCTYPE svg PUBLIC "-//W3C//DTD SVG 1.1//EN" "http://www.w3.org/Graphics/SVG/1.1/DTD/svg11.dtd"><svg t="1603504406205" class="icon" viewBox="0 0 1024 1024" version="1.1" xmlns="http://www.w3.org/2000/svg" p-id="2203" xmlns:xlink="http://www.w3.org/1999/xlink" width="200" height="200"><defs><style type="text/css"></style></defs><path d="M646.397952 307.202048h-38.397952V435.2h31.995904c51.202048 0 70.402048-19.197952 70.402048-63.997952 6.402048-44.8-19.197952-64-64-64zM512 0C281.597952 0 95.997952 185.6 95.997952 416.002048 95.997952 646.402048 512 1024 512 1024s416.002048-377.597952 416.002048-607.997952C928.002048 185.6 742.4 0 512 0z m-63.997952 307.202048h-32.002048V563.2h32.002048v64.004096h-147.202048V563.2H332.8V307.202048h-32.002048V243.2h147.202048v64.002048z m313.597952 153.6c-32.002048 25.6-63.997952 38.397952-108.797952 31.995904h-44.797952v134.406144H524.8V243.2h134.4c96 0 147.202048 38.402048 147.202048 121.602048-6.404096 44.797952-19.202048 76.8-44.802048 96z m0 0" p-id="2204"></path></svg>