<?xml version="1.0" standalone="no"?><!DOCTYPE svg PUBLIC "-//W3C//DTD SVG 1.1//EN" "http://www.w3.org/Graphics/SVG/1.1/DTD/svg11.dtd"><svg t="1603504257806" class="icon" viewBox="0 0 1024 1024" version="1.1" xmlns="http://www.w3.org/2000/svg" p-id="5199" xmlns:xlink="http://www.w3.org/1999/xlink" width="200" height="200"><defs><style type="text/css"></style></defs><path d="M896 192c0-70.58-57.42-128-128-128s-128 57.42-128 128c0 47.274 25.78 88.614 64 110.782l0 105.664-192 96-192-96 0-105.664c38.22-22.168 64-63.508 64-110.782 0-70.58-57.42-128-128-128S128 121.42 128 192c0 47.274 25.78 88.614 64 110.782l0 184.774 256 128 0 105.664c-38.22 22.168-64 63.508-64 110.782 0 70.58 57.42 128 128 128s128-57.42 128-128c0-47.274-25.78-88.614-64-110.782l0-105.664 256-128 0-184.774C870.22 280.614 896 239.274 896 192zM256 128c35.346 0 64 28.654 64 64s-28.654 64-64 64-64-28.654-64-64S220.654 128 256 128zM512 896c-35.346 0-64-28.654-64-64s28.654-64 64-64 64 28.654 64 64S547.346 896 512 896zM768 256c-35.346 0-64-28.654-64-64s28.654-64 64-64 64 28.654 64 64S803.346 256 768 256z" p-id="5200"></path></svg>