<?xml version="1.0" standalone="no"?><!DOCTYPE svg PUBLIC "-//W3C//DTD SVG 1.1//EN" "http://www.w3.org/Graphics/SVG/1.1/DTD/svg11.dtd"><svg t="1603503797313" class="icon" viewBox="0 0 1024 1024" version="1.1" xmlns="http://www.w3.org/2000/svg" p-id="606" xmlns:xlink="http://www.w3.org/1999/xlink" width="200" height="200"><defs><style type="text/css"></style></defs><path d="M827.076923 452.923077H196.923077c-43.323077 0-78.769231 35.446154-78.769231 78.769231v374.153846c0 43.323077 35.446154 78.769231 78.769231 78.769231h630.153846c43.323077 0 78.769231-35.446154 78.769231-78.769231V531.692308c0-43.323077-35.446154-78.769231-78.769231-78.769231zM610.461538 876.307692c-29.538462 19.692308-63.015385 29.538462-98.461538 29.538462-11.815385 0-23.630769-1.969231-35.446154-3.938462-47.261538-9.846154-86.646154-35.446154-112.246154-74.830769l64.984616-43.323077c13.784615 21.661538 37.415385 37.415385 63.015384 41.353846 25.6 5.907692 51.2 0 74.83077-15.753846 45.292308-29.538462 57.107692-92.553846 27.56923-135.876923-13.784615-21.661538-37.415385-37.415385-63.015384-41.353846-25.6-5.907692-51.2 0-74.83077 15.753846-5.907692 3.938462-9.846154 7.876923-13.784615 11.815385L512 728.615385h-177.230769v-177.23077l51.2 51.2c7.876923-7.876923 17.723077-15.753846 25.6-21.661538 39.384615-25.6 86.646154-35.446154 133.907692-27.569231 47.261538 9.846154 86.646154 35.446154 112.246154 74.830769 55.138462 82.707692 33.476923 192.984615-47.261539 248.123077zM196.923077 356.430769v7.876923-7.876923z m19.692308 17.723077h78.76923c11.815385 0 19.692308-5.907692 19.692308-17.723077V354.461538c0-112.246154 96.492308-204.8 210.707692-196.923076 104.369231 7.876923 183.138462 98.461538 183.138462 204.8v-5.907693c0 11.815385 7.876923 17.723077 19.692308 17.723077h78.76923c11.815385 0 19.692308-5.907692 19.692308-17.723077V354.461538c0-179.2-149.661538-322.953846-330.830769-315.076923-167.384615 7.876923-295.384615 149.661538-299.323077 317.046154 1.969231 9.846154 9.846154 17.723077 19.692308 17.723077z" p-id="607"></path></svg>