<?xml version="1.0" standalone="no"?><!DOCTYPE svg PUBLIC "-//W3C//DTD SVG 1.1//EN" "http://www.w3.org/Graphics/SVG/1.1/DTD/svg11.dtd"><svg t="1603504235175" class="icon" viewBox="0 0 1024 1024" version="1.1" xmlns="http://www.w3.org/2000/svg" p-id="4237" xmlns:xlink="http://www.w3.org/1999/xlink" width="200" height="200"><defs><style type="text/css"></style></defs><path d="M170.821818 414.114909l-14.149818-6.702545a90.298182 90.298182 0 0 1 0-163.188364l339.921455-161.047273a90.298182 90.298182 0 0 1 77.358545 0l339.921455 161.047273a90.298182 90.298182 0 0 1 0 163.188364l-25.925819 12.334545 15.266909 7.447273c44.590545 21.876364 63.255273 75.915636 42.542546 121.111273-8.750545 19.083636-23.738182 34.629818-42.542546 43.799272l-28.811636 14.149818 28.392727 13.498182a90.484364 90.484364 0 0 1 0 163.234909l-340.48 162.443637c-24.482909 11.636364-52.875636 11.636364-77.358545 0l-340.48-162.443637a90.484364 90.484364 0 0 1 0-163.188363l28.392727-13.544728-28.858182-14.149818c-44.544-21.829818-63.208727-75.869091-42.496-121.064727 8.750545-19.083636 23.738182-34.629818 42.542546-43.799273l26.717091-13.125818z m107.52 50.967273l-90.996363 44.590545 336.290909 164.770909 336.290909-164.770909-79.592728-39.005091-206.382545 97.792a90.298182 90.298182 0 0 1-77.358545 0L278.341818 465.082182z m489.425455 193.396363l-205.032728 100.445091c-24.669091 12.101818-53.527273 12.101818-78.196363 0l-205.032727-100.445091-89.832728 42.91491 333.963637 159.32509 334.010181-159.32509-89.879272-42.91491zM201.821091 325.818182l333.451636 157.928727L868.724364 325.818182 535.272727 167.889455 201.821091 325.818182z" p-id="4238"></path></svg>