<?xml version="1.0" standalone="no"?><!DOCTYPE svg PUBLIC "-//W3C//DTD SVG 1.1//EN" "http://www.w3.org/Graphics/SVG/1.1/DTD/svg11.dtd"><svg t="1603504271684" class="icon" viewBox="0 0 1024 1024" version="1.1" xmlns="http://www.w3.org/2000/svg" p-id="6011" xmlns:xlink="http://www.w3.org/1999/xlink" width="200" height="200"><defs><style type="text/css"></style></defs><path d="M85.333333 810.666667l853.333333 0 0-170.666667L85.333333 640 85.333333 810.666667zM170.666667 682.666667l85.333333 0 0 85.333333L170.666667 768 170.666667 682.666667zM85.333333 213.333333l0 170.666667 853.333333 0L938.666667 213.333333 85.333333 213.333333zM256 341.333333 170.666667 341.333333 170.666667 256l85.333333 0L256 341.333333zM85.333333 597.333333l853.333333 0 0-170.666667L85.333333 426.666667 85.333333 597.333333zM170.666667 469.333333l85.333333 0 0 85.333333L170.666667 554.666667 170.666667 469.333333z" p-id="6012"></path></svg>