<?xml version="1.0" standalone="no"?><!DOCTYPE svg PUBLIC "-//W3C//DTD SVG 1.1//EN" "http://www.w3.org/Graphics/SVG/1.1/DTD/svg11.dtd"><svg t="1603504106699" class="icon" viewBox="0 0 1024 1024" version="1.1" xmlns="http://www.w3.org/2000/svg" p-id="2427" xmlns:xlink="http://www.w3.org/1999/xlink" width="200" height="200"><defs><style type="text/css"></style></defs><path d="M945.664 259.072L688.64 0H132.608c-31.232 0-56.32 25.088-56.32 56.32v911.36c0 31.232 25.088 56.32 56.32 56.32H890.88c31.232 0 56.32-25.088 56.32-56.32V257.024c0.512 1.024-0.512 2.048-1.536 2.048z m-247.296 494.08H325.632c-17.408 0-31.232-12.288-31.232-27.136s13.824-27.136 31.232-27.136h372.736c17.408 0 31.232 12.288 31.232 27.136 0 15.36-13.824 27.136-31.232 27.136z m0-162.304H325.632c-17.408 0-31.232-12.288-31.232-27.136s13.824-27.136 31.232-27.136h372.736c17.408 0 31.232 12.288 31.232 27.136 0 15.36-13.824 27.136-31.232 27.136z m16.896-296.448c-31.232 0-56.32-25.088-56.32-56.32V37.376c0-1.024 1.024-2.048 2.048-2.048l257.024 259.072h-202.752z" p-id="2428"></path></svg>