<?xml version="1.0" standalone="no"?><!DOCTYPE svg PUBLIC "-//W3C//DTD SVG 1.1//EN" "http://www.w3.org/Graphics/SVG/1.1/DTD/svg11.dtd"><svg t="1603504163583" class="icon" viewBox="0 0 1024 1024" version="1.1" xmlns="http://www.w3.org/2000/svg" p-id="2817" xmlns:xlink="http://www.w3.org/1999/xlink" width="200" height="200"><defs><style type="text/css"></style></defs><path d="M390.73792 286.72h242.52416a61.44 61.44 0 0 0 57.52832-39.87456l36.51584-97.3824A40.96 40.96 0 0 1 765.66528 122.88H798.72a61.44 61.44 0 0 1 61.44 61.44v532.48c0 135.72096-110.03904 245.76-245.76 245.76H409.6c-135.72096 0-245.76-110.03904-245.76-245.76V184.32a61.44 61.44 0 0 1 61.44-61.44h33.05472a40.96 40.96 0 0 1 38.35904 26.58304l36.51584 97.3824A61.44 61.44 0 0 0 390.73792 286.72zM327.68 491.52a40.96 40.96 0 1 0 0-81.92 40.96 40.96 0 0 0 0 81.92z m143.36-81.92a40.96 40.96 0 1 0 0 81.92h225.28a40.96 40.96 0 1 0 0-81.92H471.04z m-143.36 225.28a40.96 40.96 0 1 0 0-81.92 40.96 40.96 0 0 0 0 81.92z m143.36-81.92a40.96 40.96 0 1 0 0 81.92h225.28a40.96 40.96 0 1 0 0-81.92H471.04z m-143.36 225.28a40.96 40.96 0 1 0 0-81.92 40.96 40.96 0 0 0 0 81.92z m143.36-81.92a40.96 40.96 0 1 0 0 81.92h225.28a40.96 40.96 0 1 0 0-81.92H471.04zM444.12928 61.44h135.74144c23.92064 0 46.24384 11.53024 59.51488 30.72l8.84736 12.8a39.7312 39.7312 0 0 1 4.096 37.92896l-23.49056 56.64768C622.3872 215.10144 606.76096 225.28 589.4144 225.28h-154.8288c-17.34656 0-32.9728-10.19904-39.424-25.74336l-23.49056-56.64768a39.7312 39.7312 0 0 1 4.096-37.92896l8.84736-12.8A72.25344 72.25344 0 0 1 444.12928 61.44z" p-id="2818"></path></svg>