<?xml version="1.0" standalone="no"?><!DOCTYPE svg PUBLIC "-//W3C//DTD SVG 1.1//EN" "http://www.w3.org/Graphics/SVG/1.1/DTD/svg11.dtd"><svg t="1603504140995" class="icon" viewBox="0 0 1024 1024" version="1.1" xmlns="http://www.w3.org/2000/svg" p-id="2687" xmlns:xlink="http://www.w3.org/1999/xlink" width="200" height="200"><defs><style type="text/css"></style></defs><path d="M254 193h516c33.137 0 60 26.863 60 60v517c0 33.137-26.863 60-60 60H254c-33.137 0-60-26.863-60-60V253c0-33.137 26.863-60 60-60z m0 56a4 4 0 0 0-4 4v517a4 4 0 0 0 4 4h516a4 4 0 0 0 4-4V253a4 4 0 0 0-4-4H254z m52 390h412v56H306v-56z m0-141.5h216v56H306v-56z m0-141.5h216v56H306v-56z m391.179-66.937l39.32 39.874-109.56 108.04-77.82-71.062 37.762-41.353 38.577 35.227 71.72-70.726z m0 157l39.32 39.874-109.56 108.04-77.82-71.062 37.762-41.353 38.577 35.227 71.72-70.726z" p-id="2688"></path></svg>