<?xml version="1.0" standalone="no"?><!DOCTYPE svg PUBLIC "-//W3C//DTD SVG 1.1//EN" "http://www.w3.org/Graphics/SVG/1.1/DTD/svg11.dtd"><svg t="1603504113965" class="icon" viewBox="0 0 1024 1024" version="1.1" xmlns="http://www.w3.org/2000/svg" p-id="2557" xmlns:xlink="http://www.w3.org/1999/xlink" width="200" height="200"><defs><style type="text/css"></style></defs><path d="M472.615385 137.846154l-33.476923-33.476923c-9.846154-9.846154-23.630769-9.846154-33.476924 0L196.923077 311.138462l-84.676923-82.707693c-9.846154-9.846154-23.630769-9.846154-33.476923 0l-33.476923 33.476923c-9.846154 9.846154-9.846154 23.630769 0 33.476923l116.184615 116.184616c9.846154 9.846154 21.661538 13.784615 33.476923 13.784615 11.815385 0 23.630769-3.938462 33.476923-13.784615L472.615385 171.323077c7.876923-7.876923 7.876923-23.630769 0-33.476923z m480.492307 224.492308H541.538462c-17.723077 0-31.507692-13.784615-31.507693-31.507693v-63.015384c0-17.723077 13.784615-31.507692 31.507693-31.507693h411.56923c17.723077 0 31.507692 13.784615 31.507693 31.507693v63.015384c0 17.723077-13.784615 31.507692-31.507693 31.507693z m0 281.6H447.015385c-17.723077 0-31.507692-13.784615-31.507693-31.507693v-63.015384c0-17.723077 13.784615-31.507692 31.507693-31.507693h506.092307c17.723077 0 31.507692 13.784615 31.507693 31.507693v63.015384c0 17.723077-13.784615 31.507692-31.507693 31.507693z m-697.107692 0H192.984615c-17.723077 0-31.507692-13.784615-31.507692-31.507693v-63.015384c0-17.723077 13.784615-31.507692 31.507692-31.507693H256c17.723077 0 31.507692 13.784615 31.507692 31.507693v63.015384c1.969231 17.723077-13.784615 31.507692-31.507692 31.507693zM256 925.538462H192.984615c-17.723077 0-31.507692-13.784615-31.507692-31.507693v-63.015384c0-17.723077 13.784615-31.507692 31.507692-31.507693H256c17.723077 0 31.507692 13.784615 31.507692 31.507693v63.015384c1.969231 17.723077-13.784615 31.507692-31.507692 31.507693z m697.107692 0H447.015385c-17.723077 0-31.507692-13.784615-31.507693-31.507693v-63.015384c0-17.723077 13.784615-31.507692 31.507693-31.507693h506.092307c17.723077 0 31.507692 13.784615 31.507693 31.507693v63.015384c0 17.723077-13.784615 31.507692-31.507693 31.507693z" p-id="2558"></path></svg>